<svg width="1900" height="531" viewBox="0 0 1900 531" fill="none" xmlns="http://www.w3.org/2000/svg">
<g clip-path="url(#clip0)">
<circle cx="1413" cy="487" r="486" stroke="#E06D37" stroke-width="2"/>
<circle cx="1111" cy="185" r="184" stroke="#E06D37" stroke-width="2"/>
<rect width="8" height="211" transform="translate(48 160)" fill="#E06D37"/>
<path d="M70.752 207.232C70.752 207.808 70.992 208 71.52 208H83.28C92.736 208 99.984 200.752 99.984 191.2C99.984 181.648 92.736 174.4 83.28 174.4H71.52C70.944 174.4 70.752 174.592 70.752 175.168V207.232ZM74.544 204.736V177.664H83.232C91.056 177.664 96.144 183.952 96.144 191.2C96.144 198.4 91.056 204.736 83.232 204.736H74.544ZM128.391 197.056C129.015 197.056 129.111 196.864 129.111 196.288C129.111 189.088 124.743 183.04 117.255 183.04C110.247 183.04 104.679 188.8 104.679 195.808C104.679 202.816 110.247 208.528 117.495 208.528C121.047 208.528 124.935 207.376 127.191 205.168C127.527 204.832 127.527 204.544 127.191 204.112L126.279 203.008C126.087 202.816 125.943 202.72 125.799 202.72C125.607 202.72 125.463 202.816 125.175 202.96C122.871 204.64 119.991 205.36 117.639 205.36C112.791 205.36 108.711 201.52 108.375 197.056H128.391ZM117.207 186.064C122.103 186.064 125.223 190.24 125.415 194.56H108.471C108.615 190.24 112.263 186.064 117.207 186.064ZM133.556 204.4C133.268 204.928 133.268 205.168 133.7 205.456C137.252 207.808 141.044 208.528 143.588 208.528C149.78 208.528 153.428 205.36 153.428 200.944C153.428 196.288 148.82 194.752 144.068 194.08C139.7 193.456 137.3 192.976 137.3 190.336C137.3 187.696 139.268 185.968 143.3 185.968C146.42 185.968 148.244 186.688 150.836 188.272C151.028 188.416 151.172 188.464 151.316 188.464C151.556 188.464 151.748 188.272 151.892 187.936L152.516 186.784C152.756 186.352 152.852 186.064 152.276 185.728C148.916 183.664 145.604 183.04 143.108 183.04C137.444 183.04 133.892 185.968 133.892 190.528C133.892 195.568 138.452 196.672 143.204 197.296C147.572 197.92 149.972 199.024 149.972 201.136C149.972 203.584 148.052 205.6 143.396 205.6C140.228 205.6 137.396 204.4 135.284 202.912C135.092 202.768 134.9 202.672 134.756 202.672C134.516 202.672 134.372 202.912 134.228 203.2L133.556 204.4ZM164.075 208C164.651 208 164.843 207.808 164.843 207.232V184.336C164.843 183.76 164.699 183.568 164.075 183.568H161.963C161.387 183.568 161.243 183.76 161.243 184.336V207.232C161.243 207.808 161.387 208 161.963 208H164.075ZM162.971 178.048C164.363 178.048 165.515 176.944 165.515 175.552C165.515 174.16 164.363 173.056 162.971 173.056C161.579 173.056 160.475 174.16 160.475 175.552C160.475 176.944 161.579 178.048 162.971 178.048ZM175.19 217.264C175.046 217.792 175.142 217.936 175.622 218.128C176.63 218.512 179.894 219.856 185.126 219.856C192.566 219.856 196.31 215.488 196.31 206.272V184.336C196.31 183.76 196.118 183.568 195.59 183.568H194.486C194.054 183.568 193.862 183.76 193.67 184.336L193.286 188.8C192.086 186.976 189.494 183.04 183.83 183.04C177.11 183.04 172.742 188.848 172.742 195.808C172.742 202.816 177.062 208.528 183.83 208.528C189.494 208.528 192.134 204.256 192.71 202.912V206.656C192.71 212.416 190.79 216.64 184.598 216.64C180.47 216.64 177.974 215.536 176.486 215.008C176.294 214.912 176.198 214.864 176.054 214.864C175.862 214.864 175.766 215.056 175.67 215.44L175.19 217.264ZM184.549 205.264C179.51 205.264 176.342 200.704 176.342 195.808C176.342 190.48 179.51 186.256 184.549 186.256C189.542 186.256 192.758 191.008 192.758 195.76C192.758 200.56 189.542 205.264 184.549 205.264ZM205.565 207.232C205.565 207.808 205.757 208 206.285 208H208.445C208.973 208 209.165 207.808 209.165 207.232V195.136C209.165 190.336 211.853 186.304 216.029 186.304C219.917 186.304 222.797 189.088 222.797 194.8V207.232C222.797 207.808 222.989 208 223.517 208H225.677C226.205 208 226.397 207.808 226.397 207.232V193.84C226.397 186.16 222.029 183.04 216.893 183.04C212.189 183.04 209.693 186.736 208.685 188.656L208.301 184.336C208.061 183.76 207.868 183.568 207.485 183.568H206.285C205.757 183.568 205.565 183.76 205.565 184.336V207.232ZM244.704 203.776C244.416 204.304 244.416 204.544 244.896 204.832C248.544 207.376 252.768 208.528 257.856 208.528C266.112 208.528 270.096 203.728 270.096 198.592C270.096 192.16 264.816 190.24 258.624 189.424C253.344 188.752 248.88 187.744 248.88 183.808C248.88 181.312 250.464 177.232 257.76 177.232C261.12 177.232 264.288 178.336 267.36 180.4C267.552 180.544 267.696 180.592 267.792 180.592C268.032 180.592 268.224 180.4 268.416 180.064L269.328 178.576C269.52 178.096 269.616 177.808 269.088 177.52C265.44 175.312 262.224 173.872 257.28 173.872C247.968 173.872 245.184 180.208 245.184 183.904C245.184 190.288 251.28 191.872 256.512 192.592C262.8 193.456 266.4 194.752 266.4 198.736C266.4 203.728 261.792 205.168 257.376 205.168C253.776 205.168 249.792 204.064 246.72 201.952C246.48 201.808 246.336 201.76 246.192 201.76C245.952 201.76 245.808 201.904 245.616 202.24L244.704 203.776ZM278.623 217.024C278.335 217.6 278.479 217.792 279.007 217.792H281.455C281.935 217.792 282.175 217.648 282.463 217.024L297.007 184.336C297.295 183.76 297.151 183.568 296.623 183.568H294.175C293.695 183.568 293.455 183.712 293.167 184.336L285.151 202.672H285.103L276.991 184.336C276.703 183.712 276.511 183.568 276.031 183.568H273.535C273.007 183.568 272.911 183.76 273.151 184.336L283.183 206.752L278.623 217.024ZM299.916 204.4C299.628 204.928 299.628 205.168 300.06 205.456C303.612 207.808 307.404 208.528 309.948 208.528C316.14 208.528 319.788 205.36 319.788 200.944C319.788 196.288 315.18 194.752 310.428 194.08C306.06 193.456 303.66 192.976 303.66 190.336C303.66 187.696 305.628 185.968 309.66 185.968C312.78 185.968 314.604 186.688 317.196 188.272C317.388 188.416 317.532 188.464 317.676 188.464C317.916 188.464 318.108 188.272 318.252 187.936L318.876 186.784C319.116 186.352 319.212 186.064 318.636 185.728C315.276 183.664 311.964 183.04 309.468 183.04C303.804 183.04 300.252 185.968 300.252 190.528C300.252 195.568 304.812 196.672 309.564 197.296C313.932 197.92 316.332 199.024 316.332 201.136C316.332 203.584 314.412 205.6 309.756 205.6C306.588 205.6 303.756 204.4 301.644 202.912C301.452 202.768 301.26 202.672 301.116 202.672C300.876 202.672 300.732 202.912 300.588 203.2L299.916 204.4ZM327.219 197.872C327.219 204.544 329.571 208.528 335.907 208.528C336.531 208.528 338.595 208.528 340.515 207.376C340.947 207.136 340.995 206.944 340.851 206.464L340.563 204.928C340.467 204.496 340.323 204.352 340.131 204.352C340.035 204.352 339.843 204.4 339.603 204.544C338.403 205.168 337.635 205.264 336.291 205.264C332.451 205.264 330.771 203.2 330.771 197.584V186.544H339.459C340.035 186.544 340.179 186.352 340.179 185.776V184.336C340.179 183.712 339.987 183.568 339.459 183.568H330.771V178.624C330.771 178.048 330.627 177.856 330.051 177.856H327.939C327.363 177.856 327.219 178.048 327.219 178.624V183.568H324.867C324.291 183.568 324.099 183.712 324.099 184.336V185.776C324.099 186.352 324.291 186.544 324.867 186.544H327.219V197.872ZM368.954 197.056C369.578 197.056 369.674 196.864 369.674 196.288C369.674 189.088 365.306 183.04 357.818 183.04C350.81 183.04 345.242 188.8 345.242 195.808C345.242 202.816 350.81 208.528 358.058 208.528C361.61 208.528 365.498 207.376 367.754 205.168C368.09 204.832 368.09 204.544 367.754 204.112L366.842 203.008C366.65 202.816 366.506 202.72 366.362 202.72C366.17 202.72 366.026 202.816 365.738 202.96C363.434 204.64 360.554 205.36 358.202 205.36C353.354 205.36 349.273 201.52 348.938 197.056H368.954ZM357.77 186.064C362.666 186.064 365.786 190.24 365.978 194.56H349.034C349.178 190.24 352.826 186.064 357.77 186.064ZM376.375 207.232C376.375 207.808 376.567 208 377.095 208H379.255C379.783 208 379.975 207.808 379.975 207.232V195.136C379.975 190.048 382.375 186.304 386.263 186.304C390.199 186.304 392.551 189.76 392.551 194.8V207.232C392.551 207.808 392.791 208 393.271 208H395.431C396.007 208 396.151 207.808 396.151 207.232V194.896C396.151 189.616 398.887 186.304 402.439 186.304C405.847 186.304 408.727 189.088 408.727 194.8V207.232C408.727 207.808 408.967 208 409.447 208H411.607C412.183 208 412.327 207.808 412.327 207.232V193.84C412.327 186.16 408.007 183.04 403.303 183.04C398.743 183.04 396.199 186.784 395.239 188.944C394.375 186.64 391.831 183.04 387.127 183.04C382.567 183.04 380.359 186.784 379.495 188.8L379.111 184.336C378.871 183.76 378.679 183.568 378.295 183.568H377.095C376.567 183.568 376.375 183.76 376.375 184.336V207.232Z" fill="#828282"/>
<path d="M105.168 334.248C124.08 334.248 139.536 318.504 139.536 299.4C139.536 280.296 124.08 264.552 105.168 264.552C86.256 264.552 70.8 280.296 70.8 299.4C70.8 318.504 86.256 334.248 105.168 334.248ZM105.168 327.528C90.192 327.528 78.48 313.8 78.48 299.4C78.48 284.904 90.192 271.272 105.168 271.272C120.336 271.272 131.856 284.904 131.856 299.4C131.856 313.8 120.336 327.528 105.168 327.528ZM153.399 351.048C153.399 352.2 153.783 352.584 154.839 352.584H159.159C160.215 352.584 160.599 352.2 160.599 351.048V322.824C161.847 325.512 167.031 334.056 178.359 334.056C191.799 334.056 200.535 322.632 200.535 308.616C200.535 294.696 191.799 283.08 178.359 283.08C167.031 283.08 161.847 290.952 159.543 294.6L158.775 285.672C158.295 284.52 158.007 284.136 157.143 284.136H154.839C153.783 284.136 153.399 284.52 153.399 285.672V351.048ZM177.015 327.528C166.935 327.528 160.599 318.12 160.599 308.52C160.599 299.016 166.935 289.512 177.015 289.512C186.999 289.512 193.431 297.96 193.431 308.616C193.431 318.504 186.999 327.528 177.015 327.528ZM215.781 312.744C215.781 326.088 220.485 334.056 233.157 334.056C234.405 334.056 238.533 334.056 242.373 331.752C243.237 331.272 243.333 330.888 243.045 329.928L242.469 326.856C242.277 325.992 241.989 325.704 241.605 325.704C241.413 325.704 241.029 325.8 240.549 326.088C238.149 327.336 236.613 327.528 233.925 327.528C226.245 327.528 222.885 323.4 222.885 312.168V290.088H240.261C241.413 290.088 241.701 289.704 241.701 288.552V285.672C241.701 284.424 241.317 284.136 240.261 284.136H222.885V274.248C222.885 273.096 222.597 272.712 221.445 272.712H217.221C216.069 272.712 215.781 273.096 215.781 274.248V284.136H211.077C209.925 284.136 209.541 284.424 209.541 285.672V288.552C209.541 289.704 209.925 290.088 211.077 290.088H215.781V312.744ZM252.019 325.8C251.443 326.856 251.443 327.336 252.307 327.912C259.411 332.616 266.995 334.056 272.083 334.056C284.467 334.056 291.763 327.72 291.763 318.888C291.763 309.576 282.547 306.504 273.043 305.16C264.307 303.912 259.507 302.952 259.507 297.672C259.507 292.392 263.443 288.936 271.507 288.936C277.747 288.936 281.395 290.376 286.579 293.544C286.963 293.832 287.251 293.928 287.539 293.928C288.019 293.928 288.403 293.544 288.691 292.872L289.939 290.568C290.419 289.704 290.611 289.128 289.459 288.456C282.739 284.328 276.115 283.08 271.123 283.08C259.795 283.08 252.691 288.936 252.691 298.056C252.691 308.136 261.811 310.344 271.315 311.592C280.051 312.84 284.851 315.048 284.851 319.272C284.851 324.168 281.011 328.2 271.699 328.2C265.363 328.2 259.699 325.8 255.475 322.824C255.091 322.536 254.707 322.344 254.419 322.344C253.939 322.344 253.651 322.824 253.363 323.4L252.019 325.8ZM325.825 334.056C339.841 334.056 351.073 322.632 351.073 308.616C351.073 294.6 339.841 283.08 325.825 283.08C311.809 283.08 300.577 294.6 300.577 308.616C300.577 322.632 311.809 334.056 325.825 334.056ZM307.777 308.616C307.777 298.056 315.841 289.608 325.825 289.608C335.905 289.608 343.969 298.056 343.969 308.616C343.969 319.176 335.905 327.624 325.825 327.624C315.841 327.624 307.777 319.176 307.777 308.616ZM371.336 333C372.488 333 372.776 332.616 372.776 331.464V263.688C372.776 262.536 372.488 262.152 371.336 262.152H367.112C365.96 262.152 365.576 262.536 365.576 263.688V331.464C365.576 332.616 365.96 333 367.112 333H371.336Z" fill="white"/>
</g>
<defs>
<clipPath id="clip0">
<rect width="1900" height="531" fill="white"/>
</clipPath>
</defs>
</svg>
