<svg width="200" height="200" viewBox="0 0 200 200" fill="none" xmlns="http://www.w3.org/2000/svg">
<g clip-path="url(#clip0)">
<path d="M197.933 132.134H180.234V44.2299H35.8614V26.4285H182.006C190.787 26.4285 197.931 33.6142 197.931 42.447V132.134H197.933Z" fill="#E06D37"/>
<path d="M80.5586 72.2398L74.0143 78.8212C73.5156 79.3215 73.2 79.9751 73.1184 80.6768C73.0367 81.3784 73.1938 82.087 73.5643 82.6884L77.2372 88.6898C77.2743 88.7498 77.28 88.8255 77.2572 88.8827L77.2314 88.9441C77.2183 88.9773 77.1975 89.0069 77.1706 89.0305C77.1438 89.0541 77.1118 89.071 77.0772 89.0798L70.3129 90.7055C69.6291 90.8699 69.0207 91.2599 68.5858 91.8125C68.1509 92.365 67.9149 93.048 67.9157 93.7512L67.89 103.047C67.8843 103.756 68.1199 104.446 68.5581 105.003C68.9963 105.561 69.6111 105.952 70.3014 106.114L77.1343 107.723C77.1711 107.732 77.2051 107.751 77.2332 107.776C77.2613 107.802 77.2828 107.834 77.2957 107.87C77.3094 107.903 77.3151 107.939 77.3124 107.975C77.3097 108.01 77.2986 108.045 77.28 108.076L73.6171 114.034C73.2451 114.636 73.0869 115.346 73.1683 116.048C73.2497 116.751 73.5659 117.406 74.0657 117.907L80.5686 124.45C81.0628 124.953 81.714 125.272 82.4143 125.355C83.1147 125.437 83.8223 125.278 84.42 124.904L90.4343 121.171C90.4667 121.152 90.5033 121.141 90.5409 121.14C90.5785 121.138 90.6159 121.145 90.65 121.161C90.6836 121.175 90.7135 121.196 90.7371 121.223C90.7608 121.251 90.7774 121.283 90.7857 121.318L92.3643 128.1C92.5209 128.791 92.9085 129.408 93.463 129.849C94.0175 130.29 94.7058 130.528 95.4143 130.526L104.637 130.5C105.34 130.498 106.021 130.259 106.571 129.821C107.121 129.383 107.506 128.773 107.666 128.088L109.307 121.183C109.323 121.113 109.373 121.056 109.491 121.006C109.524 120.992 109.559 120.986 109.595 120.989C109.63 120.992 109.664 121.003 109.694 121.021L115.594 124.674C116.192 125.045 116.898 125.203 117.597 125.12C118.295 125.038 118.945 124.72 119.44 124.22L125.983 117.638C126.481 117.138 126.797 116.485 126.88 115.784C126.962 115.083 126.806 114.375 126.437 113.773L122.759 107.753C122.721 107.691 122.716 107.618 122.759 107.508C122.772 107.475 122.793 107.446 122.82 107.422C122.847 107.399 122.88 107.383 122.914 107.374L129.677 105.746C130.36 105.581 130.968 105.191 131.403 104.639C131.838 104.086 132.074 103.404 132.074 102.701L132.109 93.417C132.115 92.7073 131.88 92.0165 131.442 91.4585C131.004 90.9004 130.388 90.5083 129.697 90.347L122.867 88.7398C122.799 88.7241 122.74 88.6727 122.701 88.5784C122.688 88.5452 122.682 88.5094 122.685 88.4737C122.688 88.438 122.699 88.4034 122.717 88.3727L126.379 82.4312C126.753 81.8295 126.912 81.1189 126.831 80.415C126.75 79.7111 126.434 79.0553 125.933 78.5541L119.419 72.0012C118.924 71.4985 118.272 71.1798 117.571 71.098C116.871 71.0161 116.163 71.176 115.566 71.5512L109.569 75.2841C109.536 75.3036 109.5 75.3149 109.462 75.3169C109.425 75.3189 109.387 75.3116 109.353 75.2955C109.319 75.282 109.29 75.2607 109.266 75.2334C109.242 75.206 109.226 75.1735 109.217 75.1384L107.633 68.3555C107.475 67.6657 107.087 67.0503 106.532 66.6102C105.978 66.1702 105.291 65.9318 104.583 65.9341L95.3586 65.9598C94.6569 65.9626 93.9767 66.2017 93.4275 66.6384C92.8783 67.0751 92.4922 67.684 92.3314 68.367L90.6843 75.2598C90.6761 75.2943 90.66 75.3263 90.6371 75.3533C90.6143 75.3804 90.5854 75.4017 90.5529 75.4155L90.4929 75.4412C90.4602 75.4547 90.4248 75.4603 90.3896 75.4575C90.3543 75.4548 90.3202 75.4438 90.29 75.4255L84.4 71.7841C83.8031 71.4125 83.0975 71.2552 82.3994 71.3381C81.7012 71.4209 81.052 71.7389 80.5586 72.2398ZM91.4029 77.4698C92.1186 77.1698 92.6529 76.5384 92.8343 75.7812L94.4814 68.8884C94.5286 68.689 94.6414 68.5112 94.8018 68.3838C94.9622 68.2563 95.1608 68.1865 95.3657 68.1855L104.593 68.1598C105.017 68.1598 105.383 68.4498 105.48 68.8655L107.064 75.647C107.246 76.4212 107.793 77.0612 108.54 77.3641C108.895 77.5068 109.278 77.564 109.659 77.5313C110.04 77.4985 110.408 77.3767 110.733 77.1755L116.73 73.4412C116.905 73.334 117.111 73.2886 117.315 73.3121C117.518 73.3357 117.708 73.4269 117.854 73.5712L124.37 80.1255C124.67 80.4284 124.724 80.8927 124.5 81.2555L120.839 87.1984C120.633 87.5337 120.511 87.9131 120.482 88.3052C120.452 88.6972 120.517 89.0905 120.67 89.4527C120.97 90.1812 121.604 90.7241 122.366 90.9027L129.196 92.5098C129.397 92.5564 129.577 92.6705 129.705 92.8331C129.833 92.9958 129.901 93.1972 129.899 93.4041L129.864 102.69C129.864 102.895 129.795 103.094 129.669 103.255C129.542 103.416 129.365 103.53 129.166 103.578L122.403 105.207C121.641 105.39 121.01 105.936 120.699 106.704C120.554 107.061 120.494 107.447 120.525 107.831C120.556 108.215 120.677 108.586 120.877 108.916L124.556 114.934C124.663 115.11 124.708 115.316 124.684 115.521C124.66 115.725 124.568 115.915 124.423 116.061L117.88 122.641C117.736 122.787 117.546 122.88 117.342 122.904C117.138 122.929 116.932 122.883 116.757 122.774L110.859 119.123C110.522 118.917 110.141 118.796 109.748 118.768C109.354 118.741 108.96 118.809 108.599 118.967C107.879 119.267 107.34 119.9 107.16 120.661L105.519 127.567C105.472 127.766 105.359 127.944 105.199 128.072C105.039 128.199 104.84 128.269 104.636 128.27L95.4114 128.296C95.2052 128.296 95.0049 128.226 94.8437 128.098C94.6824 127.969 94.5698 127.79 94.5243 127.588L92.9443 120.806C92.8176 120.267 92.513 119.786 92.0795 119.442C91.6461 119.098 91.1092 118.91 90.5557 118.908C90.1086 118.908 89.6629 119.031 89.2757 119.273L83.2614 123.006C83.0868 123.113 82.8809 123.159 82.6772 123.135C82.4734 123.111 82.2836 123.019 82.1386 122.874L75.6329 116.33C75.4871 116.184 75.3948 115.993 75.3709 115.788C75.3471 115.584 75.3931 115.377 75.5014 115.201L79.1643 109.243C79.3642 108.92 79.4861 108.555 79.5203 108.177C79.5545 107.799 79.5001 107.419 79.3614 107.066L79.3357 107C79.1879 106.642 78.9573 106.324 78.6627 106.072C78.3682 105.821 78.0182 105.643 77.6414 105.553L70.8086 103.944C70.6071 103.897 70.4276 103.783 70.2997 103.62C70.1717 103.458 70.1028 103.257 70.1043 103.05L70.13 93.7555C70.1298 93.5507 70.1986 93.3517 70.3254 93.1907C70.4521 93.0298 70.6294 92.9162 70.8286 92.8684L77.5929 91.2427C78.3586 91.0584 78.9929 90.5084 79.2814 89.7841L79.3057 89.7241C79.448 89.3678 79.5054 88.9833 79.4734 88.6009C79.4414 88.2186 79.3209 87.849 79.1214 87.5212L75.4486 81.5198C75.341 81.3442 75.2954 81.1374 75.3193 80.9328C75.3431 80.7282 75.4349 80.5375 75.58 80.3912L82.1257 73.8084C82.2697 73.663 82.4588 73.5708 82.662 73.5469C82.8652 73.523 83.0705 73.5689 83.2443 73.677L89.1314 77.317C89.4693 77.5246 89.8526 77.647 90.2483 77.6736C90.644 77.7002 91.0402 77.6303 91.4029 77.4698Z" fill="#fff"/>
<path d="M100 111.204C107.113 111.204 112.9 105.384 112.9 98.2284C112.9 91.0727 107.113 85.2527 100 85.2527C92.8871 85.2527 87.0986 91.0741 87.0986 98.2284C87.0986 105.383 92.8871 111.204 100 111.204ZM100 87.4784C105.893 87.4784 110.689 92.3013 110.689 98.2284C110.689 104.156 105.894 108.978 100 108.978C94.1057 108.978 89.3114 104.156 89.3114 98.2284C89.3114 92.3013 94.1057 87.4784 100 87.4784Z" fill="#fff"/>
<path d="M18.6257 153.537H181.376C185.887 153.537 189.559 149.846 189.559 145.307V43.0828C189.559 38.5442 185.887 34.8528 181.376 34.8528H18.6257C14.1143 34.8528 10.4429 38.5442 10.4429 43.0828V145.307C10.4429 149.846 14.1129 153.537 18.6257 153.537ZM95.0371 52.6871H104.963C108.207 52.6871 110.847 50.0314 110.847 46.7685V44.7056C110.927 44.7251 111.009 44.7352 111.091 44.7356H177.73C178.889 44.7356 179.831 45.6842 179.831 46.8485V141.541C179.831 142.707 178.889 143.654 177.73 143.654H22.27C21.7114 143.652 21.1765 143.428 20.7825 143.032C20.3886 142.636 20.1678 142.1 20.1686 141.541V46.8485C20.1686 45.6828 21.1114 44.7356 22.27 44.7356H89.1529V46.7685C89.1529 50.0314 91.7929 52.6871 95.0371 52.6871ZM91.3643 46.7685V37.2699H108.634V46.7685C108.636 47.745 108.25 48.6824 107.562 49.3748C106.873 50.0672 105.938 50.4579 104.961 50.4614H95.0357C94.0594 50.4576 93.1245 50.0666 92.4362 49.3743C91.7479 48.6819 91.3624 47.7448 91.3643 46.7685ZM12.6543 43.0828C12.6543 39.7714 15.3329 37.0785 18.6243 37.0785H89.1514V42.5099H22.27C19.8914 42.5099 17.9571 44.4571 17.9571 46.8485V141.541C17.9571 143.934 19.8914 145.88 22.27 145.88H177.73C180.109 145.88 182.043 143.934 182.043 141.541V46.8485C182.043 44.4556 180.109 42.5099 177.73 42.5099H111.091C111.009 42.5104 110.927 42.5205 110.847 42.5399V37.0785H181.374C184.666 37.0785 187.344 39.7728 187.344 43.0828V145.307C187.344 148.618 184.666 151.311 181.374 151.311H18.6257C15.3343 151.311 12.6557 148.617 12.6557 145.307V43.0828H12.6543Z" fill="#fff"/>
<path d="M0 156.65L1.32714 161.62C2.54 168.548 8.48571 173.571 15.4857 173.571H184.514C191.514 173.571 197.46 168.548 198.673 161.62L200 156.65H0ZM196.523 161.09L196.501 161.19C195.493 167.074 190.451 171.346 184.514 171.346H15.4857C9.54857 171.346 4.50714 167.074 3.49857 161.19L2.88572 158.874H73.8243L74.0114 160.271C74.4229 165.06 80.5657 167.087 82.9414 167.087H117.634C119.921 167.087 125.574 165.126 125.984 160.324L126.179 158.876H197.117L196.523 161.09ZM123.926 159.018L123.784 160.08C123.5 163.391 119.214 164.861 117.633 164.861H82.94C81.1071 164.861 76.4814 163.186 76.2086 160.027L76.0743 159.018H123.926Z" fill="#fff"/>
<path d="M100 47.9327C101.056 47.9289 102.068 47.5061 102.812 46.7572C103.557 46.0083 103.974 44.9945 103.971 43.9384C103.974 42.8823 103.557 41.8685 102.812 41.1196C102.068 40.3706 101.056 39.9479 100 39.9441C98.9439 39.9479 97.9325 40.3706 97.1879 41.1196C96.4432 41.8685 96.0263 42.8823 96.0286 43.9384C96.0271 44.9942 96.4442 46.0076 97.1887 46.7564C97.9332 47.5051 98.9441 47.9281 100 47.9327ZM100 42.1684C100.97 42.1684 101.759 42.9612 101.759 43.937C101.759 44.9127 100.97 45.7055 100 45.7055C99.03 45.7055 98.2414 44.9112 98.2414 43.937C98.2414 42.9627 99.03 42.1684 100 42.1684Z" fill="#fff"/>
</g>
<defs>
<clipPath id="clip0">
<rect width="200" height="200" fill="white"/>
</clipPath>
</defs>
</svg>
